<svg width="85" height="93" viewBox="0 0 85 93" fill="none" xmlns="http://www.w3.org/2000/svg">
<g filter="url(#filter0_d_1765_626)">
<path d="M51.1935 47.4424V10.3867C51.1935 5.58535 47.3013 1.69312 42.4999 1.69312C37.6986 1.69312 33.8063 5.58535 33.8063 10.3867V47.4425C27.6948 50.5965 23.5159 56.9713 23.5159 64.3228C23.5159 74.8072 32.0152 83.3067 42.4998 83.3067C52.9843 83.3067 61.4836 74.8072 61.4836 64.3228C61.4838 56.9713 57.3052 50.5965 51.1935 47.4424Z" fill="#B4EDEC"/>
<path d="M45.6792 55.6593V27.9001C45.6792 26.1442 44.2559 24.7209 42.5 24.7209C40.744 24.7209 39.3208 26.1442 39.3208 27.9001V55.6593C35.792 56.9547 33.2742 60.3446 33.2742 64.3225C33.2742 69.4177 37.4048 73.5483 42.5 73.5483C47.5952 73.5483 51.7258 69.4177 51.7258 64.3225C51.7258 60.3446 49.208 56.9549 45.6792 55.6593Z" fill="#FF0A13"/>
<path d="M42.5 85C31.0987 85 21.8228 75.7242 21.8228 64.3228C21.8228 56.8997 25.7396 50.1404 32.1132 46.44V10.3868C32.1132 4.65956 36.7726 0 42.5 0C48.2274 0 52.8868 4.65956 52.8868 10.3868V46.4402C59.2604 50.1405 63.1772 56.8999 63.1772 64.3229C63.1772 75.7242 53.9013 85 42.5 85ZM42.5 3.38639C38.64 3.38639 35.4996 6.52657 35.4996 10.3868V47.4426C35.4996 48.0763 35.1458 48.6567 34.5829 48.9474C28.8011 51.9312 25.2091 57.8227 25.2091 64.3229C25.2091 73.857 32.9657 81.6136 42.4998 81.6136C52.0339 81.6136 59.7905 73.8569 59.7905 64.3229C59.7905 57.8227 56.1986 51.9312 50.4168 48.9474C49.8538 48.6569 49.5001 48.0763 49.5001 47.4426V10.3868C49.5004 6.52674 46.36 3.38639 42.5 3.38639Z" fill="#3D3D3D"/>
<path d="M42.5 75.2419C36.4793 75.2419 31.5808 70.3436 31.5808 64.3227C31.5808 60.168 33.9671 56.3789 37.6274 54.5491V27.9002C37.6274 25.2136 39.8132 23.0278 42.4998 23.0278C45.1865 23.0278 47.3722 25.2136 47.3722 27.9002V54.5491C51.0325 56.3789 53.4187 60.168 53.4187 64.3227C53.4192 70.3436 48.5207 75.2419 42.5 75.2419ZM42.5 26.4144C41.6807 26.4144 41.014 27.0809 41.014 27.9004V55.6595C41.014 56.3697 40.5709 57.0043 39.9042 57.249C36.9513 58.333 34.9672 61.1757 34.9672 64.3227C34.9672 68.4763 38.3464 71.8554 42.4998 71.8554C46.6532 71.8554 50.0325 68.4761 50.0325 64.3227C50.0325 61.1757 48.0486 58.3329 45.0955 57.249C44.4289 57.0043 43.9857 56.3697 43.9857 55.6595V27.9002C43.986 27.0809 43.3193 26.4144 42.5 26.4144Z" fill="#3D3D3D"/>
<path d="M42.6692 80.259C36.5449 80.259 31.0472 76.8497 28.3212 71.3616C27.9051 70.5241 28.247 69.5079 29.0845 69.092C29.9221 68.6758 30.9383 69.0178 31.3541 69.8553C33.5042 74.1837 37.8399 76.8727 42.6692 76.8727C43.6044 76.8727 44.3624 77.6307 44.3624 78.5659C44.3624 79.501 43.6044 80.259 42.6692 80.259Z" fill="#3D3D3D"/>
<path d="M28.3561 66.3745C27.4444 66.3745 26.6918 65.6493 26.6646 64.7318C26.6598 64.5709 26.6575 64.4092 26.6575 64.2471C26.6575 63.312 27.4155 62.554 28.3507 62.554C29.2858 62.554 30.0439 63.312 30.0439 64.2471C30.0439 64.3755 30.0457 64.5035 30.0497 64.631C30.0776 65.5656 29.3424 66.3461 28.4076 66.3738C28.3903 66.3743 28.3732 66.3745 28.3561 66.3745Z" fill="#3D3D3D"/>
</g>
<defs>
<filter id="filter0_d_1765_626" x="-4" y="0" width="93" height="93" filterUnits="userSpaceOnUse" color-interpolation-filters="sRGB">
<feFlood flood-opacity="0" result="BackgroundImageFix"/>
<feColorMatrix in="SourceAlpha" type="matrix" values="0 0 0 0 0 0 0 0 0 0 0 0 0 0 0 0 0 0 127 0" result="hardAlpha"/>
<feOffset dy="4"/>
<feGaussianBlur stdDeviation="2"/>
<feComposite in2="hardAlpha" operator="out"/>
<feColorMatrix type="matrix" values="0 0 0 0 0 0 0 0 0 0 0 0 0 0 0 0 0 0 0.25 0"/>
<feBlend mode="normal" in2="BackgroundImageFix" result="effect1_dropShadow_1765_626"/>
<feBlend mode="normal" in="SourceGraphic" in2="effect1_dropShadow_1765_626" result="shape"/>
</filter>
</defs>
</svg>
