<svg width="49" height="48" viewBox="0 0 49 48" fill="none" xmlns="http://www.w3.org/2000/svg">
<path d="M36.9641 23.0851H3.92831C2.05936 23.0851 0.538818 21.5647 0.538818 19.6957C0.538818 17.8268 2.05936 16.3062 3.92831 16.3062H36.9641C39.4272 16.3062 41.4309 14.3024 41.4309 11.8393C41.4309 9.37625 39.4271 7.37239 36.9641 7.37239C34.5009 7.37239 32.4972 9.37625 32.4972 11.8393C32.4972 13.7083 30.9766 15.2288 29.1078 15.2288C27.2387 15.2288 25.7183 13.7083 25.7183 11.8393C25.7183 5.63835 30.7631 0.593506 36.9642 0.593506C43.165 0.593506 48.2099 5.63835 48.2099 11.8393C48.2099 18.0403 43.1651 23.0851 36.9641 23.0851ZM3.92831 18.2055C3.10663 18.2055 2.43803 18.874 2.43803 19.6957C2.43803 20.5174 3.10654 21.186 3.92831 21.186H36.9641C42.1178 21.186 46.3107 16.9931 46.3107 11.8394C46.3107 6.68572 42.1179 2.49281 36.9641 2.49281C31.8103 2.49281 27.6174 6.68572 27.6174 11.8394C27.6174 12.6611 28.2859 13.3297 29.1077 13.3297C29.9292 13.3297 30.5979 12.6612 30.5979 11.8394C30.5979 8.32916 33.4536 5.47327 36.964 5.47327C40.4742 5.47327 43.33 8.32907 43.33 11.8394C43.33 15.3498 40.4742 18.2055 36.964 18.2055L3.92831 18.2055Z" fill="#647B79"/>
<path d="M36.9641 47.4839C30.763 47.4839 25.7182 42.4391 25.7182 36.2381C25.7182 34.3691 27.2387 32.8486 29.1077 32.8486C30.9766 32.8486 32.4971 34.3691 32.4971 36.2381C32.4971 38.7012 34.5009 40.705 36.964 40.705C39.4271 40.705 41.4308 38.7012 41.4308 36.2381C41.4308 33.775 39.427 31.7712 36.964 31.7712H3.92831C2.05936 31.7712 0.538818 30.2507 0.538818 28.3817C0.538818 26.5126 2.05936 24.9922 3.92831 24.9922H36.9641C43.1651 24.9922 48.2099 30.037 48.2099 36.238C48.2099 42.439 43.1651 47.4839 36.9641 47.4839ZM29.1078 34.7478C28.2861 34.7478 27.6175 35.4163 27.6175 36.2381C27.6175 41.3918 31.8104 45.5847 36.9642 45.5847C42.118 45.5847 46.3107 41.3918 46.3107 36.2381C46.3107 31.0844 42.1179 26.8915 36.9641 26.8915H3.92831C3.10663 26.8915 2.43803 27.56 2.43803 28.3818C2.43803 29.2035 3.10654 29.872 3.92831 29.872H36.9641C40.4743 29.872 43.3301 32.7278 43.3301 36.2382C43.3301 39.7485 40.4743 42.6044 36.9641 42.6044C33.4537 42.6044 30.5979 39.7486 30.5979 36.2383C30.5979 35.4164 29.9293 34.7478 29.1078 34.7478Z" fill="#647B79"/>
<path d="M16.5181 14.4969H2.85488C2.3305 14.4969 1.90527 14.0717 1.90527 13.5473C1.90527 13.0228 2.3305 12.5977 2.85488 12.5977H16.5181C17.0425 12.5977 17.4677 13.0228 17.4677 13.5473C17.4677 14.0717 17.0425 14.4969 16.5181 14.4969Z" fill="#647B79"/>
<path d="M21.3002 14.4969H20.6171C20.0927 14.4969 19.6675 14.0717 19.6675 13.5473C19.6675 13.0228 20.0927 12.5977 20.6171 12.5977H21.3002C21.8246 12.5977 22.2498 13.0228 22.2498 13.5473C22.2498 14.0717 21.8246 14.4969 21.3002 14.4969Z" fill="#647B79"/>
<path d="M21.3002 35.4795H2.85488C2.3305 35.4795 1.90527 35.0544 1.90527 34.5299C1.90527 34.0055 2.3305 33.5803 2.85488 33.5803H21.3002C21.8246 33.5803 22.2498 34.0055 22.2498 34.5299C22.2498 35.0544 21.8246 35.4795 21.3002 35.4795Z" fill="#647B79"/>
</svg>
